<?xml version="1.0" encoding="UTF-8" standalone="no"?>
<!-- Created with matplotlib (http://matplotlib.org/) -->

<svg
   xmlns:dc="http://purl.org/dc/elements/1.1/"
   xmlns:cc="http://creativecommons.org/ns#"
   xmlns:rdf="http://www.w3.org/1999/02/22-rdf-syntax-ns#"
   xmlns:svg="http://www.w3.org/2000/svg"
   xmlns="http://www.w3.org/2000/svg"
   xmlns:xlink="http://www.w3.org/1999/xlink"
   xmlns:sodipodi="http://sodipodi.sourceforge.net/DTD/sodipodi-0.dtd"
   xmlns:inkscape="http://www.inkscape.org/namespaces/inkscape"
   height="290.16327pt"
   version="1.1"
   viewBox="0 0 469.04376 290.16327"
   width="469.04376pt"
   id="svg264"
   sodipodi:docname="A3.svg"
   inkscape:version="0.92.2 (5c3e80d, 2017-08-06)">
  <metadata
     id="metadata268">
    <rdf:RDF>
      <cc:Work
         rdf:about="">
        <dc:format>image/svg+xml</dc:format>
        <dc:type
           rdf:resource="http://purl.org/dc/dcmitype/StillImage" />
        <dc:title></dc:title>
      </cc:Work>
    </rdf:RDF>
  </metadata>
  <sodipodi:namedview
     pagecolor="#ffffff"
     bordercolor="#666666"
     borderopacity="1"
     objecttolerance="10"
     gridtolerance="10"
     guidetolerance="10"
     inkscape:pageopacity="0"
     inkscape:pageshadow="2"
     inkscape:window-width="1366"
     inkscape:window-height="705"
     id="namedview266"
     showgrid="false"
     fit-margin-top="0"
     fit-margin-left="0"
     fit-margin-right="0"
     fit-margin-bottom="0"
     inkscape:zoom="0.52296439"
     inkscape:cx="285.37084"
     inkscape:cy="170.54353"
     inkscape:window-x="-8"
     inkscape:window-y="-8"
     inkscape:window-maximized="1"
     inkscape:current-layer="svg264" />
  <defs
     id="defs4"
     style="stroke-linecap:butt;stroke-linejoin:round">
    <style
       type="text/css"
       id="style2">
*{stroke-linecap:butt;stroke-linejoin:round;}
  </style>
    <defs
       id="defs148">
      <path
         style="stroke-linecap:butt;stroke-linejoin:round"
         inkscape:connector-curvature="0"
         id="DejaVuSans-2e"
         d="M 10.6875,12.40625 H 21 V 0 H 10.6875 Z" />
    </defs>
    <defs
       id="defs140">
      <path
         inkscape:connector-curvature="0"
         style="stroke:#000000;stroke-width:0.80000001;stroke-linecap:butt;stroke-linejoin:round"
         id="m2b79770c61"
         d="M 0,0 H -3.5" />
    </defs>
    <defs
       id="defs196">
      <path
         style="stroke-linecap:butt;stroke-linejoin:round"
         inkscape:connector-curvature="0"
         id="DejaVuSans-36"
         d="m 33.015625,40.375 q -6.640625,0 -10.53125,-4.546875 -3.875,-4.53125 -3.875,-12.4375 0,-7.859375 3.875,-12.4375 3.890625,-4.5625 10.53125,-4.5625 6.640625,0 10.515625,4.5625 3.875,4.578125 3.875,12.4375 0,7.90625 -3.875,12.4375 Q 39.65625,40.375 33.015625,40.375 Z M 52.59375,71.296875 V 62.3125 q -3.71875,1.75 -7.5,2.671875 -3.78125,0.9375 -7.5,0.9375 -9.765625,0 -14.921875,-6.59375 -5.140625,-6.59375 -5.875,-19.921875 2.875,4.25 7.21875,6.515625 4.359375,2.265625 9.578125,2.265625 10.984375,0 17.359375,-6.671875 6.375,-6.65625 6.375,-18.125 0,-11.234375 -6.640625,-18.03125 -6.640625,-6.78125 -17.671875,-6.78125 -12.65625,0 -19.34375,9.6875 -6.6875,9.703125 -6.6875,28.109375 0,17.28125 8.203125,27.5625 8.203125,10.28125 22.015625,10.28125 3.71875,0 7.5,-0.734375 3.78125,-0.734375 7.890625,-2.1875 z" />
    </defs>
    <defs
       id="defs214">
      <path
         style="stroke-linecap:butt;stroke-linejoin:round"
         inkscape:connector-curvature="0"
         id="DejaVuSans-38"
         d="m 31.78125,34.625 q -7.03125,0 -11.0625,-3.765625 -4.015625,-3.765625 -4.015625,-10.34375 0,-6.59375 4.015625,-10.359375 4.03125,-3.765625 11.0625,-3.765625 7.03125,0 11.078125,3.78125 4.0625,3.796875 4.0625,10.34375 0,6.578125 -4.03125,10.34375 Q 38.875,34.625 31.78125,34.625 Z m -9.859375,4.1875 Q 15.578125,40.375 12.03125,44.71875 8.5,49.078125 8.5,55.328125 q 0,8.734375 6.21875,13.8125 6.234375,5.078125 17.0625,5.078125 10.890625,0 17.09375,-5.078125 6.203125,-5.078125 6.203125,-13.8125 0,-6.25 -3.546875,-10.609375 Q 48,40.375 41.703125,38.8125 q 7.125,-1.65625 11.09375,-6.5 3.984375,-4.828125 3.984375,-11.796875 0,-10.609375 -6.46875,-16.28125 -6.46875,-5.65625 -18.53125,-5.65625 -12.046875,0 -18.53125,5.65625 -6.46875,5.671875 -6.46875,16.28125 0,6.96875 4,11.796875 4.015625,4.84375 11.140625,6.5 z M 18.3125,54.390625 q 0,-5.65625 3.53125,-8.828125 3.546875,-3.171875 9.9375,-3.171875 6.359375,0 9.9375,3.171875 3.59375,3.171875 3.59375,8.828125 0,5.671875 -3.59375,8.84375 -3.578125,3.171875 -9.9375,3.171875 -6.390625,0 -9.9375,-3.171875 Q 18.3125,60.0625 18.3125,54.390625 Z" />
    </defs>
    <defs
       id="defs22">
      <path
         style="stroke-linecap:butt;stroke-linejoin:round"
         inkscape:connector-curvature="0"
         id="DejaVuSans-2212"
         d="M 10.59375,35.5 H 73.1875 V 27.203125 H 10.59375 Z" />
      <path
         style="stroke-linecap:butt;stroke-linejoin:round"
         inkscape:connector-curvature="0"
         id="DejaVuSans-34"
         d="M 37.796875,64.3125 12.890625,25.390625 h 24.90625 z m -2.59375,8.59375 h 12.40625 V 25.390625 h 10.40625 V 17.1875 H 47.609375 V 0 h -9.8125 V 17.1875 H 4.890625 v 9.515625 z" />
    </defs>
    <defs
       id="defs13">
      <path
         inkscape:connector-curvature="0"
         style="stroke:#000000;stroke-width:0.80000001;stroke-linecap:butt;stroke-linejoin:round"
         id="m3b5e7cb5d4"
         d="M 0,0 V 3.5" />
    </defs>
    <defs
       id="defs38">
      <path
         style="stroke-linecap:butt;stroke-linejoin:round"
         inkscape:connector-curvature="0"
         id="DejaVuSans-33"
         d="M 40.578125,39.3125 Q 47.65625,37.796875 51.625,33 q 3.984375,-4.78125 3.984375,-11.8125 0,-10.78125 -7.421875,-16.703125 -7.421875,-5.90625 -21.09375,-5.90625 -4.578125,0 -9.4375,0.90625 -4.859375,0.90625 -10.03125,2.71875 v 9.515625 q 4.09375,-2.390625 8.96875,-3.609375 4.890625,-1.21875 10.21875,-1.21875 9.265625,0 14.125,3.65625 4.859375,3.65625 4.859375,10.640625 0,6.453125 -4.515625,10.078125 -4.515625,3.640625 -12.5625,3.640625 h -8.5 v 8.109375 h 8.890625 q 7.265625,0 11.125,2.90625 3.859375,2.90625 3.859375,8.375 0,5.609375 -3.984375,8.609375 -3.96875,3.015625 -11.390625,3.015625 -4.0625,0 -8.703125,-0.890625 Q 15.375,64.15625 9.8125,62.3125 v 8.78125 q 5.625,1.5625 10.53125,2.34375 4.90625,0.78125 9.25,0.78125 11.234375,0 17.765625,-5.109375 6.546875,-5.09375 6.546875,-13.78125 0,-6.0625 -3.46875,-10.234375 -3.46875,-4.171875 -9.859375,-5.78125 z" />
    </defs>
    <defs
       id="defs54">
      <path
         style="stroke-linecap:butt;stroke-linejoin:round"
         inkscape:connector-curvature="0"
         id="DejaVuSans-32"
         d="M 19.1875,8.296875 H 53.609375 V 0 H 7.328125 v 8.296875 q 5.609375,5.8125 15.296875,15.59375 9.703125,9.796875 12.1875,12.640625 4.734375,5.3125 6.609375,9 1.890625,3.6875 1.890625,7.25 0,5.8125 -4.078125,9.46875 -4.078125,3.671875 -10.625,3.671875 -4.640625,0 -9.796875,-1.609375 -5.140625,-1.609375 -11,-4.890625 v 9.96875 Q 13.765625,71.78125 18.9375,73 q 5.1875,1.21875 9.484375,1.21875 11.328125,0 18.0625,-5.671875 6.734375,-5.65625 6.734375,-15.125 0,-4.5 -1.6875,-8.53125 Q 49.859375,40.875 45.40625,35.40625 44.1875,33.984375 37.640625,27.21875 31.109375,20.453125 19.1875,8.296875 Z" />
    </defs>
    <defs
       id="defs70">
      <path
         style="stroke-linecap:butt;stroke-linejoin:round"
         inkscape:connector-curvature="0"
         id="DejaVuSans-31"
         d="m 12.40625,8.296875 h 16.109375 v 55.625 L 10.984375,60.40625 v 8.984375 l 17.4375,3.515625 H 38.28125 V 8.296875 H 54.390625 V 0 H 12.40625 Z" />
    </defs>
    <defs
       id="defs86">
      <path
         style="stroke-linecap:butt;stroke-linejoin:round"
         inkscape:connector-curvature="0"
         id="DejaVuSans-30"
         d="m 31.78125,66.40625 q -7.609375,0 -11.453125,-7.5 Q 16.5,51.421875 16.5,36.375 q 0,-14.984375 3.828125,-22.484375 3.84375,-7.5 11.453125,-7.5 7.671875,0 11.5,7.5 3.84375,7.5 3.84375,22.484375 0,15.046875 -3.84375,22.53125 -3.828125,7.5 -11.5,7.5 z m 0,7.8125 q 12.265625,0 18.734375,-9.703125 6.46875,-9.6875 6.46875,-28.140625 0,-18.40625 -6.46875,-28.109375 -6.46875,-9.6875 -18.734375,-9.6875 -12.25,0 -18.71875,9.6875 Q 6.59375,17.96875 6.59375,36.375 q 0,18.453125 6.46875,28.140625 6.46875,9.703125 18.71875,9.703125 z" />
    </defs>
  </defs>
  <path
     inkscape:connector-curvature="0"
     id="path9"
     style="fill:#ffffff;stroke-linecap:butt;stroke-linejoin:round"
     d="m 22.24375,275.42266 h 446.4 V 3.622656 h -446.4 z" />
  <use
     style="stroke:#000000;stroke-width:0.80000001;stroke-linecap:butt;stroke-linejoin:round"
     x="92.290909"
     xlink:href="#m3b5e7cb5d4"
     y="315"
     id="use15"
     width="100%"
     height="100%"
     transform="translate(-49.75625,-39.577344)" />
  <use
     xlink:href="#DejaVuSans-2212"
     id="use24"
     style="stroke-linecap:butt;stroke-linejoin:round"
     x="0"
     y="0"
     width="100%"
     height="100%"
     transform="matrix(0.1,0,0,-0.1,35.163565,290.0211)" />
  <use
     x="83.789062"
     xlink:href="#DejaVuSans-34"
     id="use26"
     style="stroke-linecap:butt;stroke-linejoin:round"
     y="0"
     width="100%"
     height="100%"
     transform="matrix(0.1,0,0,-0.1,35.163565,290.0211)" />
  <use
     style="stroke:#000000;stroke-width:0.80000001;stroke-linecap:butt;stroke-linejoin:round"
     x="143.33722"
     xlink:href="#m3b5e7cb5d4"
     y="315"
     id="use32"
     width="100%"
     height="100%"
     transform="translate(-49.75625,-39.577344)" />
  <use
     xlink:href="#DejaVuSans-2212"
     id="use40"
     style="stroke-linecap:butt;stroke-linejoin:round"
     x="0"
     y="0"
     width="100%"
     height="100%"
     transform="matrix(0.1,0,0,-0.1,86.20988,290.0211)" />
  <use
     x="83.789062"
     xlink:href="#DejaVuSans-33"
     id="use42"
     style="stroke-linecap:butt;stroke-linejoin:round"
     y="0"
     width="100%"
     height="100%"
     transform="matrix(0.1,0,0,-0.1,86.20988,290.0211)" />
  <use
     style="stroke:#000000;stroke-width:0.80000001;stroke-linecap:butt;stroke-linejoin:round"
     x="194.38353"
     xlink:href="#m3b5e7cb5d4"
     y="315"
     id="use48"
     width="100%"
     height="100%"
     transform="translate(-49.75625,-39.577344)" />
  <use
     xlink:href="#DejaVuSans-2212"
     id="use56"
     style="stroke-linecap:butt;stroke-linejoin:round"
     x="0"
     y="0"
     width="100%"
     height="100%"
     transform="matrix(0.1,0,0,-0.1,137.25619,290.0211)" />
  <use
     x="83.789062"
     xlink:href="#DejaVuSans-32"
     id="use58"
     style="stroke-linecap:butt;stroke-linejoin:round"
     y="0"
     width="100%"
     height="100%"
     transform="matrix(0.1,0,0,-0.1,137.25619,290.0211)" />
  <use
     style="stroke:#000000;stroke-width:0.80000001;stroke-linecap:butt;stroke-linejoin:round"
     x="245.42984"
     xlink:href="#m3b5e7cb5d4"
     y="315"
     id="use64"
     width="100%"
     height="100%"
     transform="translate(-49.75625,-39.577344)" />
  <use
     xlink:href="#DejaVuSans-2212"
     id="use72"
     style="stroke-linecap:butt;stroke-linejoin:round"
     x="0"
     y="0"
     width="100%"
     height="100%"
     transform="matrix(0.1,0,0,-0.1,188.3025,290.0211)" />
  <use
     x="83.789062"
     xlink:href="#DejaVuSans-31"
     id="use74"
     style="stroke-linecap:butt;stroke-linejoin:round"
     y="0"
     width="100%"
     height="100%"
     transform="matrix(0.1,0,0,-0.1,188.3025,290.0211)" />
  <use
     style="stroke:#000000;stroke-width:0.80000001;stroke-linecap:butt;stroke-linejoin:round"
     x="296.47617"
     xlink:href="#m3b5e7cb5d4"
     y="315"
     id="use80"
     width="100%"
     height="100%"
     transform="translate(-49.75625,-39.577344)" />
  <use
     xlink:href="#DejaVuSans-30"
     id="use88"
     style="stroke-linecap:butt;stroke-linejoin:round"
     x="0"
     y="0"
     width="100%"
     height="100%"
     transform="matrix(0.1,0,0,-0.1,243.53866,290.0211)" />
  <use
     style="stroke:#000000;stroke-width:0.80000001;stroke-linecap:butt;stroke-linejoin:round"
     x="347.52246"
     xlink:href="#m3b5e7cb5d4"
     y="315"
     id="use94"
     width="100%"
     height="100%"
     transform="translate(-49.75625,-39.577344)" />
  <use
     xlink:href="#DejaVuSans-31"
     id="use99"
     style="stroke-linecap:butt;stroke-linejoin:round"
     x="0"
     y="0"
     width="100%"
     height="100%"
     transform="matrix(0.1,0,0,-0.1,294.58497,290.0211)" />
  <use
     style="stroke:#000000;stroke-width:0.80000001;stroke-linecap:butt;stroke-linejoin:round"
     x="398.56879"
     xlink:href="#m3b5e7cb5d4"
     y="315"
     id="use105"
     width="100%"
     height="100%"
     transform="translate(-49.75625,-39.577344)" />
  <use
     xlink:href="#DejaVuSans-32"
     id="use110"
     style="stroke-linecap:butt;stroke-linejoin:round"
     x="0"
     y="0"
     width="100%"
     height="100%"
     transform="matrix(0.1,0,0,-0.1,345.63128,290.0211)" />
  <use
     style="stroke:#000000;stroke-width:0.80000001;stroke-linecap:butt;stroke-linejoin:round"
     x="449.61508"
     xlink:href="#m3b5e7cb5d4"
     y="315"
     id="use116"
     width="100%"
     height="100%"
     transform="translate(-49.75625,-39.577344)" />
  <use
     xlink:href="#DejaVuSans-33"
     id="use121"
     style="stroke-linecap:butt;stroke-linejoin:round"
     x="0"
     y="0"
     width="100%"
     height="100%"
     transform="matrix(0.1,0,0,-0.1,396.67759,290.0211)" />
  <use
     style="stroke:#000000;stroke-width:0.80000001;stroke-linecap:butt;stroke-linejoin:round"
     x="500.66141"
     xlink:href="#m3b5e7cb5d4"
     y="315"
     id="use127"
     width="100%"
     height="100%"
     transform="translate(-49.75625,-39.577344)" />
  <use
     xlink:href="#DejaVuSans-34"
     id="use132"
     style="stroke-linecap:butt;stroke-linejoin:round"
     x="0"
     y="0"
     width="100%"
     height="100%"
     transform="matrix(0.1,0,0,-0.1,447.72391,290.0211)" />
  <use
     style="stroke:#000000;stroke-width:0.80000001;stroke-linecap:butt;stroke-linejoin:round"
     x="72"
     xlink:href="#m2b79770c61"
     y="315"
     id="use142"
     width="100%"
     height="100%"
     transform="translate(-49.75625,-39.577344)" />
  <use
     xlink:href="#DejaVuSans-30"
     id="use150"
     style="stroke-linecap:butt;stroke-linejoin:round"
     x="0"
     y="0"
     width="100%"
     height="100%"
     transform="matrix(0.1,0,0,-0.1,-0.659375,279.22188)" />
  <use
     x="63.623047"
     xlink:href="#DejaVuSans-2e"
     id="use152"
     style="stroke-linecap:butt;stroke-linejoin:round"
     y="0"
     width="100%"
     height="100%"
     transform="matrix(0.1,0,0,-0.1,-0.659375,279.22188)" />
  <use
     x="95.410156"
     xlink:href="#DejaVuSans-30"
     id="use154"
     style="stroke-linecap:butt;stroke-linejoin:round"
     y="0"
     width="100%"
     height="100%"
     transform="matrix(0.1,0,0,-0.1,-0.659375,279.22188)" />
  <use
     style="stroke:#000000;stroke-width:0.80000001;stroke-linecap:butt;stroke-linejoin:round"
     x="72"
     xlink:href="#m2b79770c61"
     y="260.64001"
     id="use160"
     width="100%"
     height="100%"
     transform="translate(-49.75625,-39.577344)" />
  <use
     xlink:href="#DejaVuSans-30"
     id="use165"
     style="stroke-linecap:butt;stroke-linejoin:round"
     x="0"
     y="0"
     width="100%"
     height="100%"
     transform="matrix(0.1,0,0,-0.1,-0.659375,224.86188)" />
  <use
     x="63.623047"
     xlink:href="#DejaVuSans-2e"
     id="use167"
     style="stroke-linecap:butt;stroke-linejoin:round"
     y="0"
     width="100%"
     height="100%"
     transform="matrix(0.1,0,0,-0.1,-0.659375,224.86188)" />
  <use
     x="95.410156"
     xlink:href="#DejaVuSans-32"
     id="use169"
     style="stroke-linecap:butt;stroke-linejoin:round"
     y="0"
     width="100%"
     height="100%"
     transform="matrix(0.1,0,0,-0.1,-0.659375,224.86188)" />
  <use
     style="stroke:#000000;stroke-width:0.80000001;stroke-linecap:butt;stroke-linejoin:round"
     x="72"
     xlink:href="#m2b79770c61"
     y="206.28"
     id="use175"
     width="100%"
     height="100%"
     transform="translate(-49.75625,-39.577344)" />
  <use
     xlink:href="#DejaVuSans-30"
     id="use180"
     style="stroke-linecap:butt;stroke-linejoin:round"
     x="0"
     y="0"
     width="100%"
     height="100%"
     transform="matrix(0.1,0,0,-0.1,-0.659375,170.50188)" />
  <use
     x="63.623047"
     xlink:href="#DejaVuSans-2e"
     id="use182"
     style="stroke-linecap:butt;stroke-linejoin:round"
     y="0"
     width="100%"
     height="100%"
     transform="matrix(0.1,0,0,-0.1,-0.659375,170.50188)" />
  <use
     x="95.410156"
     xlink:href="#DejaVuSans-34"
     id="use184"
     style="stroke-linecap:butt;stroke-linejoin:round"
     y="0"
     width="100%"
     height="100%"
     transform="matrix(0.1,0,0,-0.1,-0.659375,170.50188)" />
  <use
     style="stroke:#000000;stroke-width:0.80000001;stroke-linecap:butt;stroke-linejoin:round"
     x="72"
     xlink:href="#m2b79770c61"
     y="151.92"
     id="use190"
     width="100%"
     height="100%"
     transform="translate(-49.75625,-39.577344)" />
  <use
     xlink:href="#DejaVuSans-30"
     id="use198"
     style="stroke-linecap:butt;stroke-linejoin:round"
     x="0"
     y="0"
     width="100%"
     height="100%"
     transform="matrix(0.1,0,0,-0.1,-0.659375,116.14188)" />
  <use
     x="63.623047"
     xlink:href="#DejaVuSans-2e"
     id="use200"
     style="stroke-linecap:butt;stroke-linejoin:round"
     y="0"
     width="100%"
     height="100%"
     transform="matrix(0.1,0,0,-0.1,-0.659375,116.14188)" />
  <use
     x="95.410156"
     xlink:href="#DejaVuSans-36"
     id="use202"
     style="stroke-linecap:butt;stroke-linejoin:round"
     y="0"
     width="100%"
     height="100%"
     transform="matrix(0.1,0,0,-0.1,-0.659375,116.14188)" />
  <use
     style="stroke:#000000;stroke-width:0.80000001;stroke-linecap:butt;stroke-linejoin:round"
     x="72"
     xlink:href="#m2b79770c61"
     y="97.559998"
     id="use208"
     width="100%"
     height="100%"
     transform="translate(-49.75625,-39.577344)" />
  <use
     xlink:href="#DejaVuSans-30"
     id="use216"
     style="stroke-linecap:butt;stroke-linejoin:round"
     x="0"
     y="0"
     width="100%"
     height="100%"
     transform="matrix(0.1,0,0,-0.1,-0.659375,61.781876)" />
  <use
     x="63.623047"
     xlink:href="#DejaVuSans-2e"
     id="use218"
     style="stroke-linecap:butt;stroke-linejoin:round"
     y="0"
     width="100%"
     height="100%"
     transform="matrix(0.1,0,0,-0.1,-0.659375,61.781876)" />
  <use
     x="95.410156"
     xlink:href="#DejaVuSans-38"
     id="use220"
     style="stroke-linecap:butt;stroke-linejoin:round"
     y="0"
     width="100%"
     height="100%"
     transform="matrix(0.1,0,0,-0.1,-0.659375,61.781876)" />
  <use
     style="stroke:#000000;stroke-width:0.80000001;stroke-linecap:butt;stroke-linejoin:round"
     x="72"
     xlink:href="#m2b79770c61"
     y="43.200001"
     id="use226"
     width="100%"
     height="100%"
     transform="translate(-49.75625,-39.577344)" />
  <use
     xlink:href="#DejaVuSans-31"
     id="use231"
     style="stroke-linecap:butt;stroke-linejoin:round"
     x="0"
     y="0"
     width="100%"
     height="100%"
     transform="matrix(0.1,0,0,-0.1,-0.659375,7.421875)" />
  <use
     x="63.623047"
     xlink:href="#DejaVuSans-2e"
     id="use233"
     style="stroke-linecap:butt;stroke-linejoin:round"
     y="0"
     width="100%"
     height="100%"
     transform="matrix(0.1,0,0,-0.1,-0.659375,7.421875)" />
  <use
     x="95.410156"
     xlink:href="#DejaVuSans-30"
     id="use235"
     style="stroke-linecap:butt;stroke-linejoin:round"
     y="0"
     width="100%"
     height="100%"
     transform="matrix(0.1,0,0,-0.1,-0.659375,7.421875)" />
  <path
     inkscape:connector-curvature="0"
     id="path242"
     style="fill:none;stroke:#1f77b4;stroke-width:3;stroke-linecap:square;stroke-linejoin:round"
     d="m 92.290909,300.60575 10.209261,-1.76037 10.20926,-1.96052 10.20927,-2.17955 10.20926,-2.41831 10.20926,-2.67738 10.20926,-2.95707 10.20927,-3.25729 7.65694,-2.65204 7.65695,-2.84021 7.65695,-3.03591 7.65694,-3.23845 7.65695,-3.44695 7.65695,-3.66036 7.65694,-3.8774 7.65695,-4.09657 7.65695,-4.31619 7.65694,-4.53436 7.65695,-4.74901 7.65695,-4.95791 10.20926,-6.92119 10.20926,-7.25203 10.20926,-7.54934 10.20927,-7.80569 12.76158,-10.04437 17.8662,-14.4063 30.62779,-24.77322 12.76158,-10.02948 10.20926,-7.78993 10.20926,-7.53062 10.20927,-7.23083 10.20926,-6.89801 7.65695,-4.93955 7.65694,-4.73003 7.65695,-4.51498 7.65695,-4.2966 7.65694,-4.076946 7.65695,-3.857899 7.65695,-3.641131 7.65694,-3.42811 7.65695,-3.220094 7.65695,-3.018135 7.65695,-2.823085 2.55231,-0.898979 v 0"
     clip-path="url(#p3941694577)"
     transform="translate(-49.75625,-39.577344)" />
  <path
     inkscape:connector-curvature="0"
     id="path245"
     style="fill:none;stroke:#000000;stroke-width:0.80000001;stroke-linecap:square;stroke-linejoin:miter"
     d="M 22.24375,275.42266 V 3.622656" />
  <path
     inkscape:connector-curvature="0"
     id="path248"
     style="fill:none;stroke:#000000;stroke-width:0.80000001;stroke-linecap:square;stroke-linejoin:miter"
     d="M 468.64375,275.42266 V 3.622656" />
  <path
     inkscape:connector-curvature="0"
     id="path251"
     style="fill:none;stroke:#000000;stroke-width:0.80000001;stroke-linecap:square;stroke-linejoin:miter"
     d="m 22.24375,275.42266 h 446.4" />
  <path
     inkscape:connector-curvature="0"
     id="path254"
     style="fill:none;stroke:#000000;stroke-width:0.80000001;stroke-linecap:square;stroke-linejoin:miter"
     d="m 22.24375,3.622656 h 446.4" />
  <defs
     id="defs262">
    <clipPath
       id="p3941694577"
       style="stroke-linecap:butt;stroke-linejoin:round">
      <rect
         height="271.79999"
         width="446.39999"
         x="72"
         y="43.200001"
         id="rect259"
         style="stroke-linecap:butt;stroke-linejoin:round" />
    </clipPath>
  </defs>
</svg>
